HIERARCHY
ROOT hips
{
  OFFSET 0 11.86390953 0.3628582958
  CHANNELS 6 Xposition Yposition Zposition Yrotation Xrotation Zrotation
  JOINT spine
  {
    OFFSET 0 0.05383551117999996 0
    CHANNELS 3 Yrotation Xrotation Zrotation
    JOINT chest
    {
      OFFSET 0 0.6394558760401424 0
      CHANNELS 3 Yrotation Xrotation Zrotation
      JOINT neck
      {
        OFFSET 0 2.720089088562982 0
        CHANNELS 3 Yrotation Xrotation Zrotation
        JOINT head
        {
          OFFSET 0 0.37880844870545777 0
          CHANNELS 3 Yrotation Xrotation Zrotation
          JOINT rightEye
          {
            OFFSET -0.42867780714 0.7547055649100001 0.7381831347
            CHANNELS 3 Yrotation Xrotation Zrotation
            End Site
            {
              OFFSET -0.42867780714 0.7547055649100001 0.7381831347
            }
          }
          JOINT leftEye
          {
            OFFSET 0.428676479 0.7547055559999993 0.7381844503
            CHANNELS 3 Yrotation Xrotation Zrotation
            End Site
            {
              OFFSET 0.428676479 0.7547055559999993 0.7381844503
            }
          }
          JOINT jaw
          {
            OFFSET -0.18933892286100001 1.5626303011000007 1.137441874206
            CHANNELS 3 Yrotation Xrotation Zrotation
            End Site
            {
              OFFSET -0.18933892286100001 1.5626303011000007 1.137441874206
            }
          }
        }
      }
      JOINT rightShoulder
      {
        OFFSET -0.6795351508 2.0665205 0
        CHANNELS 3 Yrotation Xrotation Zrotation
        JOINT rightUpperArm
        {
          OFFSET -0.7287400483531672 0 0
          CHANNELS 3 Yrotation Xrotation Zrotation
          JOINT rightLowerArm
          {
            OFFSET -1.9872982039174532 0 0
            CHANNELS 3 Yrotation Xrotation Zrotation
            JOINT rightHand
            {
              OFFSET -2.6451847532219275 0 0
              CHANNELS 3 Yrotation Xrotation Zrotation
              JOINT rightLittleProximal
              {
                OFFSET -0.8008804099999995 -0.09592044000000044 -0.26183688629999996
                CHANNELS 3 Yrotation Xrotation Zrotation
                JOINT rightLittleIntermediate
                {
                  OFFSET -0.2473955153999997 -0.02541697026000067 0.002370178700999967
                  CHANNELS 3 Yrotation Xrotation Zrotation
                  JOINT rightLittleDistal
                  {
                    OFFSET -0.163687229200001 -0.015790700860001117 -0.0004274845300000635
                    CHANNELS 3 Yrotation Xrotation Zrotation
                    End Site
                    {
                      OFFSET -0.163687229200001 -0.015790700860001117 -0.0004274845300000635
                    }
                  }
                }
              }
              JOINT rightRingProximal
              {
                OFFSET -0.8393382799999985 -0.06223833561000025 -0.09213143500000005
                CHANNELS 3 Yrotation Xrotation Zrotation
                JOINT rightRingIntermediate
                {
                  OFFSET -0.3284497260000011 -0.03264224524000103 0.009408593183000052
                  CHANNELS 3 Yrotation Xrotation Zrotation
                  JOINT rightRingDistal
                  {
                    OFFSET -0.19447660429999902 -0.021730899850000318 0.003074347969000052
                    CHANNELS 3 Yrotation Xrotation Zrotation
                    End Site
                    {
                      OFFSET -0.19447660429999902 -0.021730899850000318 0.003074347969000052
                    }
                  }
                }
              }
              JOINT rightMiddleProximal
              {
                OFFSET -0.8473005199999989 -0.06735503500000095 0.10541820299999995
                CHANNELS 3 Yrotation Xrotation Zrotation
                JOINT rightMiddleIntermediate
                {
                  OFFSET -0.3450455799999995 -0.02481901642000084 0.019012570390000032
                  CHANNELS 3 Yrotation Xrotation Zrotation
                  JOINT rightMiddleDistal
                  {
                    OFFSET -0.23542332000000088 -0.025003910029999243 0.0075583457949999905
                    CHANNELS 3 Yrotation Xrotation Zrotation
                    End Site
                    {
                      OFFSET -0.23542332000000088 -0.025003910029999243 0.0075583457949999905
                    }
                  }
                }
              }
              JOINT rightIndexProximal
              {
                OFFSET -0.8008568281999987 -0.09897839600000169 0.29462796
                CHANNELS 3 Yrotation Xrotation Zrotation
                JOINT rightIndexIntermediate
                {
                  OFFSET -0.30524754480000016 -0.024634122809999992 0.02743375304999998
                  CHANNELS 3 Yrotation Xrotation Zrotation
                  JOINT rightIndexDistal
                  {
                    OFFSET -0.23067378950000017 -0.016876459159999913 0.008484125099999983
                    CHANNELS 3 Yrotation Xrotation Zrotation
                    End Site
                    {
                      OFFSET -0.23067378950000017 -0.016876459159999913 0.008484125099999983
                    }
                  }
                }
              }
              JOINT rightThumbProximal
              {
                OFFSET -0.25574064999999935 -0.12833189930000155 0.22385698609999993
                CHANNELS 3 Yrotation Xrotation Zrotation
                JOINT rightThumbIntermediate
                {
                  OFFSET -0.22791743260000086 -0.07103586192999978 0.27385039
                  CHANNELS 3 Yrotation Xrotation Zrotation
                  JOINT rightThumbDistal
                  {
                    OFFSET -0.13610267659999975 -0.03369390969999997 0.14246511509999996
                    CHANNELS 3 Yrotation Xrotation Zrotation
                    End Site
                    {
                      OFFSET -0.13610267659999975 -0.03369390969999997 0.14246511509999996
                    }
                  }
                }
              }
            }
          }
        }
      }
      JOINT leftShoulder
      {
        OFFSET 0.6795338396 2.0665205 0
        CHANNELS 3 Yrotation Xrotation Zrotation
        JOINT leftUpperArm
        {
          OFFSET 0.7287383950230443 0 0
          CHANNELS 3 Yrotation Xrotation Zrotation
          JOINT leftLowerArm
          {
            OFFSET 1.9872997282019604 0 0
            CHANNELS 3 Yrotation Xrotation Zrotation
            JOINT leftHand
            {
              OFFSET 2.6451820781302327 0 0
              CHANNELS 3 Yrotation Xrotation Zrotation
              JOINT leftLittleProximal
              {
                OFFSET 0.8008804099999995 -0.09592306899999814 -0.2618342639000001
                CHANNELS 3 Yrotation Xrotation Zrotation
                JOINT leftLittleIntermediate
                {
                  OFFSET 0.2473981400000007 -0.02542352681000093 0.0023609995859999455
                  CHANNELS 3 Yrotation Xrotation Zrotation
                  JOINT leftLittleDistal
                  {
                    OFFSET 0.1636846068000002 -0.015794634789999318 -0.00043272972159996703
                    CHANNELS 3 Yrotation Xrotation Zrotation
                    End Site
                    {
                      OFFSET 0.1636846068000002 -0.015794634789999318 -0.00043272972159996703
                    }
                  }
                }
              }
              JOINT leftRingProximal
              {
                OFFSET 0.8393409199999996 -0.062242267999998324 -0.0921281570000001
                CHANNELS 3 Yrotation Xrotation Zrotation
                JOINT leftRingIntermediate
                {
                  OFFSET 0.3284471036000003 -0.03264224524000103 0.009405970574000042
                  CHANNELS 3 Yrotation Xrotation Zrotation
                  JOINT leftRingDistal
                  {
                    OFFSET 0.1944779099999996 -0.021732211159998904 0.003073036670000001
                    CHANNELS 3 Yrotation Xrotation Zrotation
                    End Site
                    {
                      OFFSET 0.1944779099999996 -0.021732211159998904 0.003073036670000001
                    }
                  }
                }
              }
              JOINT leftMiddleProximal
              {
                OFFSET 0.8473005200000001 -0.06736028199999788 0.1054214809999999
                CHANNELS 3 Yrotation Xrotation Zrotation
                JOINT leftMiddleIntermediate
                {
                  OFFSET 0.3450455799999995 -0.024824261000000014 0.019013225990000007
                  CHANNELS 3 Yrotation Xrotation Zrotation
                  JOINT leftMiddleDistal
                  {
                    OFFSET 0.2354259489999998 -0.025005222000000327 0.0075590014499999705
                    CHANNELS 3 Yrotation Xrotation Zrotation
                    End Site
                    {
                      OFFSET 0.2354259489999998 -0.025005222000000327 0.0075590014499999705
                    }
                  }
                }
              }
              JOINT leftIndexProximal
              {
                OFFSET 0.8008594516999996 -0.09898495199999946 0.29463124239999994
                CHANNELS 3 Yrotation Xrotation Zrotation
                JOINT leftIndexIntermediate
                {
                  OFFSET 0.30524754480000016 -0.024632811499998963 0.02743047472
                  CHANNELS 3 Yrotation Xrotation Zrotation
                  JOINT leftIndexDistal
                  {
                    OFFSET 0.23067378950000017 -0.016876459159999913 0.008481502700000004
                    CHANNELS 3 Yrotation Xrotation Zrotation
                    End Site
                    {
                      OFFSET 0.23067378950000017 -0.016876459159999913 0.008481502700000004
                    }
                  }
                }
              }
              JOINT leftThumbProximal
              {
                OFFSET 0.25574326469999953 -0.12833321050000013 0.22385764169999997
                CHANNELS 3 Yrotation Xrotation Zrotation
                JOINT leftThumbIntermediate
                {
                  OFFSET 0.22804987480000094 -0.07138466829999968 0.273648441
                  CHANNELS 3 Yrotation Xrotation Zrotation
                  JOINT leftThumbDistal
                  {
                    OFFSET 0.13614857189999907 -0.033867001519998885 0.14238119169999996
                    CHANNELS 3 Yrotation Xrotation Zrotation
                    End Site
                    {
                      OFFSET 0.13614857189999907 -0.033867001519998885 0.14238119169999996
                    }
                  }
                }
              }
            }
          }
        }
      }
    }
  }
  JOINT rightUpperLeg
  {
    OFFSET -0.9749898906000001 -1.8495733739999998 0
    CHANNELS 3 Yrotation Xrotation Zrotation
    JOINT rightLowerLeg
    {
      OFFSET 0 -4.1566544686813165 0
      CHANNELS 3 Yrotation Xrotation Zrotation
      JOINT rightFoot
      {
        OFFSET 0.14539718599999998 -4.225553926 -0.3666210900000001
        CHANNELS 3 Yrotation Xrotation Zrotation
        JOINT rightToes
        {
          OFFSET 0.1706738473 -0.9584117400000015 1.0093348617
          CHANNELS 3 Yrotation Xrotation Zrotation
          End Site
          {
            OFFSET 0.1706738473 -0.9584117400000015 1.0093348617
          }
        }
      }
    }
  }
  JOINT leftUpperLeg
  {
    OFFSET 0.9749898906000001 -1.8495733739999998 0
    CHANNELS 3 Yrotation Xrotation Zrotation
    JOINT leftLowerLeg
    {
      OFFSET 0 -4.156653488267941 0
      CHANNELS 3 Yrotation Xrotation Zrotation
      JOINT leftFoot
      {
        OFFSET -0.14537357999999995 -4.225555399999999 -0.36661124279999996
        CHANNELS 3 Yrotation Xrotation Zrotation
        JOINT leftToes
        {
          OFFSET -0.17066467000000002 -0.9584157000000019 1.0093348617
          CHANNELS 3 Yrotation Xrotation Zrotation
          End Site
          {
            OFFSET -0.17066467000000002 -0.9584157000000019 1.0093348617
          }
        }
      }
    }
  }
}
MOTION
Frames: 4
Frame Time: 0.03333333333333333
-0.06108899787068367 -0.33976058895996175 0.031513046473264694 -1.5028518851179655 -0.8965683932178269 5.611624235778647 1.1544331031479653 1.2907839898962234 -3.211326368291723 -1.2511677792782965 1.3583467484303917 -11.807656616364966 0.32624006152248175 1.0460849389859446 2.1759195798249347 -0.4395045396218284 1.5665782608677297 8.134790217271485 0 0 0 0 0 0 0 0 0 13.854270343634813 3.496990057654245 5.725222125530767 -2.7765769534128895 3.3702039394578627 83.5189511870089 14.505509484140118 0.02360676528053282 -0.18542136268414958 -7.334532469773942 -25.635393484531793 13.969050442111886 -11.927249195518423 4.780082325530681 33.400365811512174 -2.760194632289957 1.0727205065091752 45.71733400212595 -1.9076599306967639 0.4110699773683486 27.949306833701723 -7.235991952370732 1.8041111526455023 22.703747920024558 -2.5751327649327975 0.9475778370664482 40.5492706911653 -1.5912913690874582 0.3404527292438451 23.74576949459255 -5.903666406717575 0.8397129728013717 14.053977236147373 -1.8518975964838713 0.4956198081421087 29.69421671730058 -1.4865598320317885 0.27642875321872934 21.678053247385503 -1.932810215646641 0.29034311268348845 6.728662225202669 -1.1825810384576685 0.18843393304792588 17.98171187230421 -1.3884573631424348 0.24991616022667257 20.564737321528373 3.0721526528465786 16.146648278997418 -12.238733493789438 -36.363587012887656 8.22554502218633 7.432954315238354 -21.789273983373842 -3.4223126865213733 -16.41183268846887 -3.40806663835599 4.516977499202414 -5.698081892271619 -1.3393838886750071 -1.6742246572535007 -67.29732119329533 -17.726883440513674 0.03511383796842438 0.22534988282584084 12.30780531150778 -10.325628927200475 -12.98810700635901 12.928424291344125 5.261366963532183 -33.806515400684376 3.5785356987531896 1.6923604458843429 -45.6236719644907 2.3673456254308625 0.6904289325142137 -27.89628009535162 7.833915816777006 1.980785904358205 -23.275138290001674 3.328030464688035 1.2277144762461665 -40.473129029677445 2.060567826554348 0.43277479942359565 -23.70449330446203 6.26466505588241 0.9211667859004458 -14.669042942711277 2.5379373169519304 0.6703816073383009 -29.642502402760996 1.8925040388929346 0.3617162544961602 -21.640354876239527 2.1850575367387948 0.3179034212179832 -7.433240046727212 1.5913205867785172 0.2516809272603457 -17.951682881163304 1.789885113792777 0.3253178684552412 -20.52958821294017 -1.4037916825916583 16.809070605322837 13.209889694351343 34.75745197171883 8.4249880866454 -8.14110817234717 15.80145614684953 -4.9943436908815535 15.506256384120583 -11.211658258160357 -20.673016592985757 -12.424985477919334 -10.492995054727682 24.503623187242713 -6.592685657942554 -3.407551275762452 -3.5479608051776066 9.958811719058989 0.000003320464377721529 -0.4680906640349589 7.275172884658625e-7 5.0715394529106135 -2.4980222440180757 -11.10691718217928 5.184951287239885 14.598549317174097 -2.027774909618422 -1.0128232887083766 -11.12746227156195 7.989693859897299 0.000008081989098966093 -0.5860257742106179 1.435592785298985e-7
-0.06125615909695625 -0.33978919918945394 0.03157270327210426 -1.4971464322875248 -0.8884089558129273 5.621628202999222 1.1545036946523621 1.2901728531254142 -3.209829748743984 -1.251941917544307 1.3582241974769071 -11.794846460821589 0.33750836041901255 1.0291731786302476 2.1612285588382725 -0.4002987297576934 1.4229909079296938 8.14606983096435 0 0 0 0 0 0 0 0 0 13.863806940636739 3.496036110834576 5.7016085398734795 -2.9902499474412463 3.4112627155444892 83.5095011229625 14.447057557392217 0.023400779030829714 -0.18465735924833357 -7.439751825546956 -25.54102338862963 13.95988402475716 -11.94164407588504 4.778437789101116 33.41072973293786 -2.760220597987576 1.07275039382502 45.71789441946852 -1.9084313903709285 0.4114530647998833 27.961877339300038 -7.239274847047299 1.8062041502167996 22.713540553618532 -2.574937600892807 0.9474129294829302 40.54545819195453 -1.5918008251765818 0.340681891474882 23.753812732667622 -5.902879631857592 0.8394893134537051 14.053242470177462 -1.8509801979762652 0.4951161695891761 29.678905046621534 -1.4859597012646757 0.27618478456243273 21.668638593331096 -1.9234499085323562 0.28934042274765337 6.726154525126682 -1.1817146057820336 0.18814652994232878 17.968426950465563 -1.3874849320800844 0.2495598931080448 20.54953833440564 3.082379071082011 16.12826979178886 -12.232998203772553 -36.33512651473973 8.224179452592809 7.427866915840224 -21.765572429173304 -3.424823847495024 -16.40810930044763 -3.373555554687466 4.51982000820347 -5.706501107388896 -1.3437738363716012 -1.5837128222398227 -67.34204928635812 -17.815349560756918 0.03546967488342962 0.22645456428492233 12.276957184125425 -10.357249837498928 -13.041371768987979 12.928421784389364 5.26137896693663 -33.806504943477016 3.5785344200320335 1.6923538262511568 -45.6236840695235 2.3673409333427506 0.6904291459731231 -27.896273969707885 7.833912431531664 1.980795515054391 -23.275138290001674 3.3280247101139393 1.2276998520153246 -40.47312421396542 2.0605716661609983 0.4327783480215423 -23.704499368020077 6.2646667017676725 0.9211693475524494 -14.66903051305709 2.5379368904546302 0.6703879577144727 -29.642502402760996 1.8924846257503898 0.361706515946445 -21.640327289527498 2.185052631034274 0.3179107584481978 -7.433214206552936 1.5913247473599197 0.2516779390237545 -17.951682881163304 1.789886287177672 0.32531461339074685 -20.52957901963369 -1.4037914356352243 16.80908130788757 13.209924266478557 34.75743952625204 8.424984634294887 -8.141115007464734 15.801452848283981 -4.994350118588022 15.506258035786189 -11.21829150583384 -20.69049257076501 -12.450277887694135 -10.450453956545998 24.524957727085084 -6.547169113293476 -3.41178164805699 -3.562107950585205 9.94368826612928 -0.000010207702898505924 -0.46809706755100683 -0.0000018894819072278252 5.103147590830295 -2.4890692070319935 -11.102797999498204 5.363648522221155 14.588290674009906 -1.999590678484783 -1.2059899933303535 -11.120563077512536 7.994718346353429 0.000001759241695613977 -0.5860376209396313 4.38668468677733e-7
-0.06176642328500748 -0.33995609219482503 0.03134426474571228 -1.4522750854209834 -0.8721486251638791 5.642592501776906 1.1539883819471284 1.281332896213328 -3.1954253556065932 -1.242101869588786 1.3586641212682642 -11.712388096403947 0.36211220103041114 0.9945616668205454 2.115617001721601 -0.30927012238661283 1.12212955445228 8.115820928088999 0 0 0 0 0 0 0 0 0 13.859585068569515 3.4900156403246654 5.678132461212251 -3.4579252498127393 3.4589349373930895 83.40027483839238 14.340981504994215 0.023082926746801243 -0.1833264310060369 -7.495150838795051 -25.17812743156805 13.783471825767622 -12.036892247963042 4.767576408268235 33.47913787186886 -2.7601324169584593 1.0726544341941116 45.71603689759634 -1.9135292067621268 0.4139962556695826 28.045026648513034 -7.261007603026887 1.8200234189862876 22.77813664393957 -2.573617422978398 0.9462905974967271 40.520117330268285 -1.595123746679484 0.3421638287120448 23.806962593197785 -5.889987053557678 0.8355922741765163 14.040910505571235 -1.8448976371994616 0.49173686154505686 29.577433654570946 -1.4819963241597622 0.27461633089474197 21.60639032838512 -1.8615975430184424 0.28226767386447166 6.709599385646329 -1.1759742304613163 0.18631593608918115 17.880416471704994 -1.3810266902221886 0.24712648195560594 20.448890816560034 3.149992288303737 16.006633195738047 -12.19518874027069 -36.146966939784285 8.214560213405647 7.394144927073967 -21.60870380196392 -3.4414921022347835 -16.383556032469148 -3.326505059930726 4.521672912132954 -5.759049626353965 -1.2382489751538739 -1.4302200224440145 -67.44397308821283 -17.925888679251685 0.03589452407137394 0.22782662176923663 12.142757317402118 -10.252129847549712 -13.125353605722385 12.928424291344125 5.261389255569199 -33.80651921701346 3.5785297313877624 1.6923590578967376 -45.623674406534676 2.367333681933788 0.6904193802280266 -27.896278586118544 7.833915436228218 1.9808136685917828 -23.275155116236665 3.3280221525254308 1.2276947281972381 -40.47311458254156 2.0605723060954384 0.4327737054949056 -23.704499368020077 6.264667974945176 0.9211736169724598 -14.669010610058296 2.5379351844654257 0.670390359117229 -29.642516170367607 1.8924967856309358 0.3617009396262018 -21.640332051205817 2.185054550657785 0.31791390678698245 -7.433226500938163 1.5913215469126885 0.2516857831448079 -17.951681256729245 1.789884260421943 0.3253135461564866 -20.52956982632728 -1.4037860859587659 16.809077740365925 13.209910427020597 34.7574443308067 8.424985497382512 -8.14110817234717 15.801458729622906 -4.99435997440473 15.506285560221656 -11.24107409955047 -20.72743328504606 -12.505502817759709 -10.369708216339221 24.580349120696415 -6.442489629619799 -3.42723953990891 -3.5996377671472786 9.909279227593332 -0.0000026089797573310227 -0.4680906640349589 6.850179089088097e-7 5.176577396800919 -2.469030955309825 -11.09938738145003 5.610572516679903 14.565553620281209 -1.974335571232153 -1.5506308956151895 -11.100457238933494 8.024679196824431 0.0000021536623128340173 -0.5860289760292677 -8.470881266608e-7
-0.06247304379940033 -0.34017066891601644 0.030689697712659836 -1.361261750765728 -0.856357032091462 5.665602175449882 1.1546433487788532 1.2651946172104422 -3.1687629760013745 -1.2149395485120906 1.3661848983078044 -11.559341108502062 0.382705149681262 0.9672948637936619 2.0504612733107233 -0.22878296816893273 0.8863340903751219 7.989960690434417 0 0 0 0 0 0 0 0 0 13.813336432597078 3.479273449548051 5.688095190531728 -3.804923882605668 3.4320637855572276 83.15389270448847 14.32345896438027 0.023014301349377826 -0.18311420262357714 -7.307407740375231 -24.63552268885339 13.447876973647167 -12.217852915750537 4.747674246041384 33.60874042901115 -2.759751497366811 1.0723078480995267 45.70850543892208 -1.923199913436593 0.4188512876980764 28.202873216246363 -7.302199470109012 1.8464531302346818 22.900808900862614 -2.5711080430552578 0.944126413704432 40.47200889619887 -1.6014389958318296 0.3449895768014804 23.907888844574767 -5.864236998048496 0.8278556294729146 14.016312091822863 -1.8333448462705537 0.4853571795784271 29.384743671340846 -1.474465007194781 0.27164988733482054 21.488204164365964 -1.7441448782472913 0.2690003847777801 6.6781351798035224 -1.1650747774393855 0.1828556802652934 17.713336842142823 -1.3687530977666744 0.24258471152853206 20.257822118819774 3.278219430623424 15.775685896871577 -12.123252142065937 -35.78965364057827 8.196246261011709 7.330101184350029 -21.310890891310255 -3.4733018409452816 -16.33696706887139 -3.334297614766457 4.516687168238338 -5.862274308349299 -0.942370892059331 -1.369301953487138 -67.55287783449968 -17.840425199338252 0.03555881420530735 0.22675374313210114 11.928146897792287 -9.901274360207786 -13.127824395389522 12.9284251269957 5.261384539945918 -33.806526824540036 3.5785314363493206 1.6923552142387586 -45.62369129046753 2.3673432793868106 0.6904286656905768 -27.896278586118544 7.833917128850975 1.980807261460916 -23.27515982480022 3.3280262020405633 1.2276981440759613 -40.47311458254156 2.060567826554348 0.43277461265528266 -23.704490177406047 6.264670945692661 0.9211741506499614 -14.669058676571074 2.537934757968124 0.670381180422256 -29.642499434402485 1.892502972236762 0.3617147603625046 -21.640352029572394 2.185059243070795 0.3179113721074524 -7.433252341113284 1.5913179197391476 0.25167329658476595 -17.95166883309766 1.7898919407594185 0.3253230445414065 -20.52957742050476 -1.4037972551709281 16.809072389083585 13.20987753842048 34.75744716716415 8.424984634294887 -8.14109913955784 15.801448616228226 -4.994344547909079 15.506270513928728 -11.263540227301682 -20.762710257792676 -12.546701133170583 -10.366566296465104 24.623513787450417 -6.405972049687875 -3.4423574962483925 -3.6258862673425742 9.902422187798075 -0.00000132604661671961 -0.4680938657929822 -1.1739367534182861e-7 5.19162896609152 -2.4879336844510056 -11.101195769356135 5.664959676374473 14.578752364518705 -1.9659665687032506 -1.6865634975953476 -11.092031783411134 8.024158945767264 0.000002549781282467004 -0.5860225190283258 -4.253139946918307e-7
